<svg width="428" height="301" viewBox="0 0 428 301" fill="none" xmlns="http://www.w3.org/2000/svg">
<path fill-rule="evenodd" clip-rule="evenodd" d="M272.202 157.385C308.448 157.385 337.831 128.559 337.831 93C337.831 57.4414 308.448 28.6154 272.202 28.6154C252.704 28.6154 235.188 36.9469 223.15 50.2226C222.805 50.7581 222.418 51.2775 221.992 51.7765L219.091 55.168C218.854 55.4879 218.542 55.7568 218.31 56.0811L165.512 117.809C160.335 123.862 151.136 124.652 144.966 119.572C138.795 114.493 137.99 105.469 143.168 99.4153L193.65 40.3942C182.951 32.9676 169.9 28.6154 155.798 28.6154C119.552 28.6154 90.1687 57.4414 90.1687 93C90.1687 128.559 119.552 157.385 155.798 157.385C175.297 157.385 192.813 149.053 204.85 135.777C205.196 135.242 205.582 134.723 206.009 134.223L208.91 130.832C209.148 130.512 209.458 130.243 209.69 129.919L262.489 68.191C267.666 62.1379 276.864 61.3484 283.035 66.4276C289.206 71.5068 290.011 80.5314 284.833 86.5847L234.351 145.607C245.05 153.032 258.1 157.385 272.202 157.385ZM214 166.411C230.057 178.679 250.267 186 272.202 186C324.558 186 367 144.363 367 93C367 41.6375 324.558 4.49025e-06 272.202 0C250.258 -1.882e-06 230.059 7.32076 214.001 19.5881C197.943 7.32128 177.733 8.13032e-06 155.798 8.13032e-06C103.443 8.13032e-06 61 41.6375 61 93C61 144.363 103.443 186 155.798 186C177.742 186 197.942 178.679 214 166.411Z" fill="#273250"/>
<path d="M6.72 280V210.88H35.904C36.576 210.88 37.472 210.912 38.592 210.976C39.744 211.008 40.768 211.104 41.664 211.264C45.792 211.904 49.168 213.264 51.792 215.344C54.448 217.424 56.4 220.048 57.648 223.216C58.896 226.352 59.52 229.856 59.52 233.728C59.52 237.6 58.88 241.12 57.6 244.288C56.352 247.424 54.4 250.032 51.744 252.112C49.12 254.192 45.76 255.552 41.664 256.192C40.768 256.32 39.744 256.416 38.592 256.48C37.44 256.544 36.544 256.576 35.904 256.576H19.776V280H6.72ZM19.776 244.384H35.328C36 244.384 36.736 244.352 37.536 244.288C38.336 244.224 39.072 244.096 39.744 243.904C41.504 243.424 42.864 242.624 43.824 241.504C44.784 240.352 45.44 239.088 45.792 237.712C46.176 236.304 46.368 234.976 46.368 233.728C46.368 232.48 46.176 231.168 45.792 229.792C45.44 228.384 44.784 227.12 43.824 226C42.864 224.848 41.504 224.032 39.744 223.552C39.072 223.36 38.336 223.232 37.536 223.168C36.736 223.104 36 223.072 35.328 223.072H19.776V244.384ZM69.1575 280V210.88H82.2135V239.296H113.125V210.88H126.182V280H113.125V251.488H82.2135V280H69.1575ZM169.322 281.44C162.41 281.44 156.442 279.936 151.418 276.928C146.426 273.92 142.57 269.712 139.85 264.304C137.162 258.896 135.818 252.608 135.818 245.44C135.818 238.272 137.162 231.984 139.85 226.576C142.57 221.168 146.426 216.96 151.418 213.952C156.442 210.944 162.41 209.44 169.322 209.44C176.234 209.44 182.186 210.944 187.177 213.952C192.202 216.96 196.058 221.168 198.746 226.576C201.466 231.984 202.826 238.272 202.826 245.44C202.826 252.608 201.466 258.896 198.746 264.304C196.058 269.712 192.202 273.92 187.177 276.928C182.186 279.936 176.234 281.44 169.322 281.44ZM169.322 269.152C173.706 269.216 177.354 268.272 180.266 266.32C183.178 264.368 185.354 261.6 186.794 258.016C188.266 254.432 189.002 250.24 189.002 245.44C189.002 240.64 188.266 236.48 186.794 232.96C185.354 229.44 183.178 226.704 180.266 224.752C177.354 222.8 173.706 221.792 169.322 221.728C164.938 221.664 161.29 222.608 158.378 224.56C155.466 226.512 153.274 229.28 151.802 232.864C150.362 236.448 149.642 240.64 149.642 245.44C149.642 250.24 150.362 254.4 151.802 257.92C153.274 261.44 155.466 264.176 158.378 266.128C161.29 268.08 164.938 269.088 169.322 269.152ZM226.565 280V223.072H204.773V210.88H261.413V223.072H239.621V280H226.565ZM298.79 281.44C291.878 281.44 285.91 279.936 280.886 276.928C275.894 273.92 272.038 269.712 269.318 264.304C266.63 258.896 265.286 252.608 265.286 245.44C265.286 238.272 266.63 231.984 269.318 226.576C272.038 221.168 275.894 216.96 280.886 213.952C285.91 210.944 291.878 209.44 298.79 209.44C305.702 209.44 311.654 210.944 316.646 213.952C321.67 216.96 325.526 221.168 328.214 226.576C330.934 231.984 332.294 238.272 332.294 245.44C332.294 252.608 330.934 258.896 328.214 264.304C325.526 269.712 321.67 273.92 316.646 276.928C311.654 279.936 305.702 281.44 298.79 281.44ZM298.79 269.152C303.174 269.216 306.822 268.272 309.734 266.32C312.646 264.368 314.822 261.6 316.262 258.016C317.734 254.432 318.47 250.24 318.47 245.44C318.47 240.64 317.734 236.48 316.262 232.96C314.822 229.44 312.646 226.704 309.734 224.752C306.822 222.8 303.174 221.792 298.79 221.728C294.406 221.664 290.758 222.608 287.846 224.56C284.934 226.512 282.742 229.28 281.27 232.864C279.83 236.448 279.11 240.64 279.11 245.44C279.11 250.24 279.83 254.4 281.27 257.92C282.742 261.44 284.934 264.176 287.846 266.128C290.758 268.08 294.406 269.088 298.79 269.152ZM335.201 280L356.321 210.88H375.809L396.929 280H383.489L364.673 219.04H367.169L348.641 280H335.201ZM347.873 265.6V253.408H384.353V265.6H347.873ZM406.493 280V210.88H419.549V280H406.493Z" fill="#273250"/>
</svg>
